<?xml version="1.0" encoding="UTF-8"?>
<svg xmlns="http://www.w3.org/2000/svg" id="logo" data-name="logo" viewBox="0 0 345.99 347.83">
  <defs>
    <style>.cls-1{fill-rule:evenodd;}</style>
  </defs>
  <title>Logo</title>
  <path class="cls-1" d="M185.79,271.48l19.65-73.31-77.88.7L107.37,279A108.66,108.66,0,0,0,106,295.07c.42,6,.89,8.55,2.53,12.46a50.82,50.82,0,0,0,16.74,23.23,67.83,67.83,0,0,0,27.06,14h0l2.25.57s31.69,5.34,63.31.42c12.23-1.23,24.46-2.11,36-6.79l.87-.35A80.79,80.79,0,0,0,296.62,308a111.72,111.72,0,0,0,6.81-9.72c5.61-9.17,9.18-20.85,11.86-32l28.5-113.59c14-67-43-120.69-43-120.69L242.33,272.11"></path>
  <path class="cls-1" d="M160,76.63l-19.48,73,77.88-.7,20.19-80.1A109.58,109.58,0,0,0,240,52.76c-.42-5.95-.88-8.54-2.53-12.45a50.77,50.77,0,0,0-16.74-23.24,67.77,67.77,0,0,0-27.06-14h0c-.75-.2-1.49-.39-2.25-.57,0,0-31.68-5.33-63.3-.42-12.23,1.23-24.46,2.12-36,6.79l-.87.35A80.77,80.77,0,0,0,49.38,39.84a111.07,111.07,0,0,0-6.81,9.72c-5.62,9.17-9.19,20.85-11.87,32L2.21,195.14c-14,67,43,120.69,43,120.69L103.67,75.72"></path>
</svg>
